:SAMPLES-PER-SECOND 30
:FULLY-SPECIFIED
:DEGREES
20
root  6.86392 40.0618 1.32221 -30.5226 -88.8441 27.8292
RightUpLeg  -0.119391 -13.1337 -5.26025
RightLeg  15.5502 0.641252 2.82486
RightFoot  -15.4217 0.0806861 5.18985
RightToes  0.00048216 0.542163 -0.142577
Spine  7.47428 -0.854503 1.57733
Spine1  2.91699 -1.32894 3.62551
HEad  7.56481 -0.199582 -6.34219
LeftShoulder1  3.11202 -5.39114 -28.8571
LeftArm  -33.1185 29.2415 -22.2709
LeftForeArm  22.5777 -23.4074 -3.81157
LeftHand  -0.25398 0.0180481 5.50724
RightShoulder  2.42742 4.14445 25.6409
RightArm  -13.2847 -19.1711 17.7647
RightForeArm  -3.0039 12.6393 5.45589
RightHand  -2.3831 8.54985 -20.0904
LeftUpLeg  -4.36113 6.31819 -3.85052
LeftLeg  22.3571 7.11519 3.53896
LeftFoot  -15.0409 0.0250549 -2.0377
LeftToes  1.06246e-005 4.65856e-005 -8.18501e-006
21
root  6.5738 39.9831 1.49658 -11.6723 -87.1719 8.8492
RightUpLeg  0.339817 -13.6575 -5.82109
RightLeg  16.424 -0.13035 2.42565
RightFoot  -15.9727 0.10926 5.37725
RightToes  0.00048216 0.542163 -0.142577
Spine  7.63121 -1.07455 2.12632
Spine1  4.11858 -1.60785 4.04512
HEad  8.19551 -0.897511 -6.70285
LeftShoulder1  3.74294 -6.19866 -32.498
LeftArm  -29.2377 29.043 -25.8298
LeftForeArm  25.0183 -22.9894 -3.57821
LeftHand  -0.25398 0.0180481 5.50724
RightShoulder  2.57381 4.19024 27.4176
RightArm  -12.7599 -22.1866 21.5195
RightForeArm  -1.08068 12.9653 5.41772
RightHand  -2.15027 7.79965 -19.1842
LeftUpLeg  -6.8123 5.02591 -4.11851
LeftLeg  26.571 6.96725 4.11069
LeftFoot  -14.947 0.00825261 -2.58569
LeftToes  1.06246e-005 4.65856e-005 -8.18501e-006
22
root  6.22343 39.9528 1.68149 -14.3391 -85.487 11.749
RightUpLeg  0.712789 -14.0748 -6.67791
RightLeg  16.9021 -1.01339 2.11203
RightFoot  -16.3916 0.130426 5.47748
RightToes  0.00048216 0.542163 -0.142577
Spine  7.62249 -1.26563 2.26733
Spine1  4.91966 -1.85405 4.26398
HEad  8.72635 -1.59642 -6.38958
LeftShoulder1  4.24167 -6.68898 -35.4965
LeftArm  -23.9729 29.1524 -29.6536
LeftForeArm  27.2367 -22.129 -3.29115
LeftHand  -0.25398 0.0180481 5.50724
RightShoulder  2.64593 4.08847 28.8511
RightArm  -13.455 -25.0914 26.2425
RightForeArm  1.29541 13.111 5.23965
RightHand  -1.85496 6.82361 -17.9044
LeftUpLeg  -9.69179 4.58846 -4.46891
LeftLeg  29.7196 7.0592 4.67776
LeftFoot  -14.3002 0.0205571 -2.5163
LeftToes  1.06246e-005 4.65856e-005 -8.18501e-006
23
root  5.81915 39.9519 1.88202 -17.2041 -84.0662 15.0523
RightUpLeg  1.22186 -14.3856 -7.74189
RightLeg  16.8378 -1.80515 1.99034
RightFoot  -16.7754 0.14861 5.52357
RightToes  0.00048216 0.542163 -0.142577
Spine  7.79702 -1.37655 2.10343
Spine1  5.04276 -2.00061 4.27466
HEad  9.20101 -2.32371 -5.65067
LeftShoulder1  4.66735 -6.99964 -38.2262
LeftArm  -19.3976 30.0982 -33.3691
LeftForeArm  29.2005 -21.3304 -3.14299
LeftHand  -0.25398 0.0180481 5.50724
RightShoulder  2.70698 4.02282 29.9851
RightArm  -15.1325 -27.8572 31.4154
RightForeArm  3.8649 13.0104 4.97417
RightHand  -1.50148 5.60796 -16.1316
LeftUpLeg  -12.6183 4.9583 -4.70023
LeftLeg  31.1505 7.05726 4.92432
LeftFoot  -13.4525 0.0366389 -2.39479
LeftToes  1.06246e-005 4.65856e-005 -8.18501e-006
24
root  5.36965 39.9576 2.10943 -19.8933 -83.0137 18.1774
RightUpLeg  1.99738 -14.4197 -8.89574
RightLeg  16.3477 -2.30385 2.04214
RightFoot  -17.15 0.191932 6.06827
RightToes  0.00048216 0.542163 -0.142577
Spine  8.19367 -1.39441 1.97922
Spine1  4.90629 -1.96951 3.87901
HEad  9.41556 -3.0868 -4.71221
LeftShoulder1  5.0546 -7.27796 -40.549
LeftArm  -16.622 31.6138 -37.0175
LeftForeArm  30.1272 -20.1988 -3.13975
LeftHand  -0.25398 0.0180481 5.50724
RightShoulder  2.83014 4.15231 30.9981
RightArm  -16.6826 -30.1821 36.4134
RightForeArm  6.11143 12.6843 4.81262
RightHand  -1.08823 3.93483 -13.7955
LeftUpLeg  -15.3173 5.96777 -4.68312
LeftLeg  30.8946 6.69526 4.65124
LeftFoot  -12.7625 0.0457482 -2.48369
LeftToes  1.06246e-005 4.65856e-005 -8.18501e-006
